HIERARCHY
ROOT root
{
	OFFSET	0	13.1	24.9
	CHANNELS 6  Xposition Yposition Zposition Xrotation Yrotation Zrotation
	JOINT spine_1
	{
		OFFSET	0	9.99999	0
		CHANNELS 3  Xrotation Yrotation Zrotation
		JOINT spine_2
		{
			OFFSET	0	112	-10
			CHANNELS 3  Xrotation Yrotation Zrotation
			JOINT spine_3
			{
				OFFSET	0	206.5	19.3
				CHANNELS 3  Xrotation Yrotation Zrotation
				JOINT spine_4
				{
					OFFSET	0	110.4	14.6
					CHANNELS 3  Xrotation Yrotation Zrotation
					JOINT neck_1
					{
						OFFSET	0	71.8	-50.3
						CHANNELS 3  Xrotation Yrotation Zrotation
						JOINT neck_2
						{
							OFFSET	0	86.2	-25.8
							CHANNELS 3  Xrotation Yrotation Zrotation
							JOINT head_ee
							{
								OFFSET	0	179.8	-8.7
								CHANNELS 3  Xrotation Yrotation Zrotation
								End Site
								{
									OFFSET	1	0	0
								}
							}
						}
					}
					JOINT left_clavicle
					{
						OFFSET	-43.2	22.4	-70.8
						CHANNELS 3  Xrotation Yrotation Zrotation
						JOINT left_shoulder
						{
							OFFSET	-93.9	-5.79999	48.7
							CHANNELS 3  Xrotation Yrotation Zrotation
							JOINT left_elbow
							{
								OFFSET	-291.4	-30.8	15.2
								CHANNELS 3  Xrotation Yrotation Zrotation
								JOINT left_lowarm_twist
								{
									OFFSET	-110.7	-3.89999	13.6
									CHANNELS 3  Xrotation Yrotation Zrotation
									JOINT left_hand
									{
										OFFSET	-110.7	-3.89999	13.6
										CHANNELS 3  Xrotation Yrotation Zrotation
										JOINT left_ee
										{
											OFFSET	-80.8	-5.10001	12.1
											CHANNELS 3  Xrotation Yrotation Zrotation
											End Site
											{
												OFFSET	1	0	0
											}
										}
									}
								}
							}
						}
					}
					JOINT right_clavicle
					{
						OFFSET	43.2	22.4	-70.8
						CHANNELS 3  Xrotation Yrotation Zrotation
						JOINT right_shoulder
						{
							OFFSET	93.9	-5.79999	48.7
							CHANNELS 3  Xrotation Yrotation Zrotation
							JOINT right_elbow
							{
								OFFSET	291.4	-30.8	15.2
								CHANNELS 3  Xrotation Yrotation Zrotation
								JOINT right_lowarm_twist
								{
									OFFSET	110.7	-3.89999	13.6
									CHANNELS 3  Xrotation Yrotation Zrotation
									JOINT right_hand
									{
										OFFSET	110.7	-3.89999	13.6
										CHANNELS 3  Xrotation Yrotation Zrotation
										JOINT right_ee
										{
											OFFSET	80.8	-5.10001	12.1
											CHANNELS 3  Xrotation Yrotation Zrotation
											End Site
											{
												OFFSET	1	0	0
											}
										}
									}
								}
							}
						}
					}
				}
			}
		}
	}
	JOINT left_hip
	{
		OFFSET	-82.8	-127.5	0.300001
		CHANNELS 3  Xrotation Yrotation Zrotation
		JOINT left_knee
		{
			OFFSET	-28.2	-396.7	2.2
			CHANNELS 3  Xrotation Yrotation Zrotation
			JOINT left_ankle
			{
				OFFSET	-11.7	-411.3	35.4
				CHANNELS 3  Xrotation Yrotation Zrotation
				JOINT left_toes
				{
					OFFSET	0	-60	-88.6
					CHANNELS 3  Xrotation Yrotation Zrotation
					JOINT left_foot_ee
					{
						OFFSET	-22.5	-16.5	-42.2
						CHANNELS 3  Xrotation Yrotation Zrotation
						End Site
						{
							OFFSET	1	0	0
						}
					}
				}
			}
		}
	}
	JOINT right_hip
	{
		OFFSET	82.8	-127.5	0.300001
		CHANNELS 3  Xrotation Yrotation Zrotation
		JOINT right_knee
		{
			OFFSET	28.2	-396.7	2.2
			CHANNELS 3  Xrotation Yrotation Zrotation
			JOINT right_ankle
			{
				OFFSET	11.7	-411.3	35.4
				CHANNELS 3  Xrotation Yrotation Zrotation
				JOINT right_toes
				{
					OFFSET	0	-60	-88.6
					CHANNELS 3  Xrotation Yrotation Zrotation
					JOINT right_foot_ee
					{
						OFFSET	22.5	-16.5	-42.2
						CHANNELS 3  Xrotation Yrotation Zrotation
						End Site
						{
							OFFSET	1	0	0
						}
					}
				}
			}
		}
	}
}
MOTION
Frames: 14
Frame Time: 0.02
3177.02 653.055 -1669.29 -21.8273925324 12.5681846507 5.39175040579 6.76415 0.210778 0.222851 6.76415 0.196171 0.235812 6.76494 0.173252 0.253128 6.76492 0.211055 0.222589 -16.0839 2.46749 1.94496 -16.0856 3.61079 2.6891 -0.0 0.0 -0.0 5.34995 10.9324 10.4507 -31.1054 3.98168 69.2001 0.189565 -5.36476 0.0088812 -20.8606 -1.18161 2.3766 2.90749 10.3667 23.6156 -0.0 0.0 -0.0 12.82 23.2753 -25.5522 -14.4597 -3.09411 -50.9895 1.88731 43.0692 -0.744805 -58.2902 5.07091 -5.04478 -5.05749 1.06412 36.8629 0.0 0.0 0.0 51.6179 -2.32196 -1.89467 -13.8636 0.318261 2.09857 8.47632 21.0825 -1.24335 -8.78258 0.0 0.0 -0.0 0.0 -0.0 10.6988 -13.2135 3.33392 -10.1148 -0.282499 -1.52459 41.4772 -25.7949 5.33504 12.1098 -0.0 -0.0 0.0 0.0 0.0 
3160.91743833 652.124 -1685.44558441 -21.3473009566 12.3490584032 5.5517588702 6.62344 0.04271 0.115081 6.62345 0.0353006 0.117565 6.62351 0.0238507 0.120411 6.62349 0.0425681 0.115134 -14.9938 2.61584 1.40399 -15.0029 4.16848 2.19103 -0.0 0.0 -0.0 5.974 10.5758 11.5453 -28.1271 4.3269 68.3002 0.18856 -5.33647 0.00878749 -19.629 -1.08835 2.24937 2.7378 11.4178 22.769 -0.0 0.0 -0.0 12.6205 23.8923 -25.0301 -14.6858 -2.07867 -50.4544 1.94618 43.9476 -0.785336 -60.0298 5.28646 -5.10211 -4.63459 1.90525 33.8668 0.0 0.0 0.0 51.5961 -2.52251 -1.89764 -16.6261 0.320551 2.52237 10.0381 21.4974 -1.4678 -9.03228 0.0 0.0 -0.0 0.0 -0.0 10.2553 -11.6215 4.29123 -13.5666 -0.316798 -2.05302 38.441 -26.4197 5.06201 12.6161 -0.0 -0.0 0.0 0.0 0.0 
3160.72016994 652.124 -1685.24653283 -21.4050150997 13.0045739537 5.81474688797 6.62344 0.04271 0.115081 6.62345 0.0353006 0.117565 6.62351 0.0238507 0.120411 6.62349 0.0425681 0.115134 -14.9938 2.61584 1.40399 -15.0029 4.16848 2.19103 -0.0 0.0 -0.0 5.974 10.5758 11.5453 -28.1271 4.3269 68.3002 0.18856 -5.33647 0.00878749 -19.629 -1.08835 2.24937 2.7378 11.4178 22.769 -0.0 0.0 -0.0 12.6205 23.8923 -25.0301 -14.6858 -2.07867 -50.4544 1.94618 43.9476 -0.785336 -60.0298 5.28646 -5.10211 -4.63459 1.90525 33.8668 0.0 0.0 0.0 51.5961 -2.52251 -1.89764 -16.6261 0.320551 2.52237 10.0381 21.4974 -1.4678 -9.03228 0.0 0.0 -0.0 0.0 -0.0 10.2553 -11.6215 4.29123 -13.5666 -0.316798 -2.05302 38.441 -26.4197 5.06201 12.6161 -0.0 -0.0 0.0 0.0 0.0 
3160.56047487 652.124 -1685.08175204 -21.4546921722 13.5411208857 6.03111864737 6.62344 0.04271 0.115081 6.62345 0.0353006 0.117565 6.62351 0.0238507 0.120411 6.62349 0.0425681 0.115134 -14.9938 2.61584 1.40399 -15.0029 4.16848 2.19103 -0.0 0.0 -0.0 5.974 10.5758 11.5453 -28.1271 4.3269 68.3002 0.18856 -5.33647 0.00878749 -19.629 -1.08835 2.24937 2.7378 11.4178 22.769 -0.0 0.0 -0.0 12.6205 23.8923 -25.0301 -14.6858 -2.07867 -50.4544 1.94618 43.9476 -0.785336 -60.0298 5.28646 -5.10211 -4.63459 1.90525 33.8668 0.0 0.0 0.0 51.5961 -2.52251 -1.89764 -16.6261 0.320551 2.52237 10.0381 21.4974 -1.4678 -9.03228 0.0 0.0 -0.0 0.0 -0.0 10.2553 -11.6215 4.29123 -13.5666 -0.316798 -2.05302 38.441 -26.4197 5.06201 12.6161 -0.0 -0.0 0.0 0.0 0.0 
3129.24259961 646.916 -1714.31322773 -20.5431649416 11.0293524391 4.9746980807 6.38167 0.180069 0.184617 6.38167 0.167956 0.195701 6.38224 0.147504 0.211544 6.38222 0.179062 0.185594 -14.4496 4.59128 0.501497 -14.5061 8.46649 1.95657 -0.0 0.0 -0.0 6.26607 11.133 12.0428 -27.0385 5.56647 67.0227 0.193903 -5.48678 0.00929141 -17.8644 -0.959565 2.0637 2.29162 16.2575 21.2375 -0.0 0.0 -0.0 13.0514 25.1015 -25.8988 -15.2242 -4.20451 -50.9535 1.87844 42.9346 -0.738757 -65.3233 5.95123 -5.23583 -4.12737 3.6064 30.7631 0.0 0.0 0.0 51.1087 -2.306 -0.665402 -24.4506 0.216322 3.71753 19.9253 23.3098 -2.83329 -11.4547 0.0 0.0 -0.0 0.0 -0.0 10.8217 -3.97614 5.14397 -19.9943 -0.295707 -3.03849 32.8413 -28.5075 4.53237 13.8427 -0.0 -0.0 0.0 0.0 0.0 
3111.81305775 657.086 -1749.71432715 -18.6135639623 10.551371832 3.68350524815 5.85058 -0.0822642 0.501613 5.85071 -0.114016 0.495362 5.84959 -0.167549 0.479907 5.84928 -0.0896552 0.500345 -13.9279 6.32619 2.26178 -13.9982 10.6846 4.13561 -0.0 0.0 -0.0 6.33717 9.51289 12.2128 -20.7486 6.95085 67.42 0.264622 -7.46826 0.0172706 -16.3819 -0.855851 1.90474 1.48921 24.4602 18.5069 -0.0 0.0 -0.0 13.6726 26.3939 -27.1895 -15.9291 -7.80627 -53.605 1.69054 39.941 -0.614361 -73.0873 6.94043 -5.31927 -3.85117 6.34439 30.0208 0.0 0.0 0.0 48.8893 -0.130125 0.246593 -28.726 0.0907525 4.36149 30.2231 26.6436 -4.17546 -15.5674 0.0 0.0 -0.0 0.0 -0.0 11.2735 5.92871 5.50705 -28.465 -0.0997931 -4.32246 30.5479 -26.7621 4.21648 15.9091 -0.0 -0.0 0.0 0.0 0.0 
3110.94806953 657.086 -1749.00522891 -18.6514477155 11.1378875575 3.88485494295 5.85058 -0.0822642 0.501613 5.85071 -0.114016 0.495362 5.84959 -0.167549 0.479907 5.84928 -0.0896552 0.500345 -13.9279 6.32619 2.26178 -13.9982 10.6846 4.13561 -0.0 0.0 -0.0 6.33717 9.51289 12.2128 -20.7486 6.95085 67.42 0.264622 -7.46826 0.0172706 -16.3819 -0.855851 1.90474 1.48921 24.4602 18.5069 -0.0 0.0 -0.0 13.6726 26.3939 -27.1895 -15.9291 -7.80627 -53.605 1.69054 39.941 -0.614361 -73.0873 6.94043 -5.31927 -3.85117 6.34439 30.0208 0.0 0.0 0.0 48.8893 -0.130125 0.246593 -28.726 0.0907525 4.36149 30.2231 26.6436 -4.17546 -15.5674 0.0 0.0 -0.0 0.0 -0.0 11.2735 5.92871 5.50705 -28.465 -0.0997931 -4.32246 30.5479 -26.7621 4.21648 15.9091 -0.0 -0.0 0.0 0.0 0.0 
3098.60444907 658.931 -1771.82580466 -17.7891604499 12.2074331471 3.51854194341 5.53329 -0.127515 0.608445 5.53348 -0.165972 0.599099 5.53157 -0.233753 0.576044 5.53114 -0.139846 0.60573 -14.0139 6.29778 3.76298 -14.0442 9.72078 5.55268 -0.0 0.0 -0.0 5.64762 8.93516 10.9907 -18.8434 6.96679 68.1267 0.281771 -7.94626 0.0195706 -16.3947 -0.856726 1.90612 1.2561 26.3203 17.6402 -0.0 0.0 -0.0 13.6402 26.3314 -27.1219 -14.4955 -8.61251 -55.4122 1.48347 36.3086 -0.486452 -76.1585 7.33281 -5.31495 -3.78259 6.237 29.4347 0.0 0.0 0.0 47.2429 1.55034 1.39295 -30.1448 0.0384943 4.57296 33.1582 26.6376 -4.50949 -16.4932 0.0 0.0 -0.0 0.0 -0.0 13.2195 9.79524 3.90947 -37.1671 0.296448 -5.5976 30.2701 -26.9078 4.18817 17.531 -0.0 -0.0 0.0 0.0 0.0 
3098.21254962 658.931 -1771.52490416 -17.8037897228 12.4162490235 3.58714902924 5.53329 -0.127515 0.608445 5.53348 -0.165972 0.599099 5.53157 -0.233753 0.576044 5.53114 -0.139846 0.60573 -14.0139 6.29778 3.76298 -14.0442 9.72078 5.55268 -0.0 0.0 -0.0 5.64762 8.93516 10.9907 -18.8434 6.96679 68.1267 0.281771 -7.94626 0.0195706 -16.3947 -0.856726 1.90612 1.2561 26.3203 17.6402 -0.0 0.0 -0.0 13.6402 26.3314 -27.1219 -14.4955 -8.61251 -55.4122 1.48347 36.3086 -0.486452 -76.1585 7.33281 -5.31495 -3.78259 6.237 29.4347 0.0 0.0 0.0 47.2429 1.55034 1.39295 -30.1448 0.0384943 4.57296 33.1582 26.6376 -4.50949 -16.4932 0.0 0.0 -0.0 0.0 -0.0 13.2195 9.79524 3.90947 -37.1671 0.296448 -5.5976 30.2701 -26.9078 4.18817 17.531 -0.0 -0.0 0.0 0.0 0.0 
3097.39450236 658.931 -1770.88906491 -17.8353386153 12.8540741652 3.73137661719 5.53329 -0.127515 0.608445 5.53348 -0.165972 0.599099 5.53157 -0.233753 0.576044 5.53114 -0.139846 0.60573 -14.0139 6.29778 3.76298 -14.0442 9.72078 5.55268 -0.0 0.0 -0.0 5.64762 8.93516 10.9907 -18.8434 6.96679 68.1267 0.281771 -7.94626 0.0195706 -16.3947 -0.856726 1.90612 1.2561 26.3203 17.6402 -0.0 0.0 -0.0 13.6402 26.3314 -27.1219 -14.4955 -8.61251 -55.4122 1.48347 36.3086 -0.486452 -76.1585 7.33281 -5.31495 -3.78259 6.237 29.4347 0.0 0.0 0.0 47.2429 1.55034 1.39295 -30.1448 0.0384943 4.57296 33.1582 26.6376 -4.50949 -16.4932 0.0 0.0 -0.0 0.0 -0.0 13.2195 9.79524 3.90947 -37.1671 0.296448 -5.5976 30.2701 -26.9078 4.18817 17.531 -0.0 -0.0 0.0 0.0 0.0 
3092.83600016 663.757 -1781.92062946 -18.5236107995 12.7641889364 3.65123742045 5.6082 -0.0589881 0.650186 5.60843 -0.100241 0.645115 5.60707 -0.172916 0.629541 5.60653 -0.0713236 0.648948 -13.9468 6.00012 4.26653 -13.9527 8.83801 5.92834 -0.0 0.0 -0.0 5.38817 6.98858 10.5258 -14.0399 7.39025 67.0602 0.262523 -7.40968 0.0169989 -15.9772 -0.828259 1.86089 1.0647 28.2984 17.0884 -0.0 0.0 -0.0 13.3467 26.0644 -26.4723 -13.7058 -9.38071 -57.0501 1.31336 33.0465 -0.389631 -78.7681 7.66535 -5.29464 -3.73377 6.14981 29.0142 0.0 0.0 0.0 46.0258 3.14273 1.5294 -28.7667 0.0893257 4.36758 35.2009 26.636 -4.73248 -17.2348 0.0 0.0 -0.0 0.0 -0.0 15.4722 12.1862 4.58272 -41.1091 0.538829 -6.15283 27.5059 -26.9972 3.86109 18.0952 -0.0 -0.0 0.0 0.0 0.0 
3072.2548223 661.53 -1822.32221793 -19.3876965547 12.8105318193 3.90779932535 5.8425 0.399102 0.753113 5.84275 0.350372 0.776981 5.8472 0.26323 0.810658 5.84649 0.387951 0.758917 -11.2847 5.39701 3.75126 -11.2737 7.75135 5.07283 -0.0 0.0 -0.0 4.13439 6.12457 8.22242 -7.71334 6.23966 69.9166 0.248636 -7.02175 0.0152546 -13.417 -0.66098 1.57914 -0.120064 28.2086 10.404 -0.0 0.0 -0.0 10.8705 27.3613 -20.6645 -16.4767 -13.2961 -66.4219 1.12785 29.1912 -0.293699 -81.597 8.02407 -5.25539 -4.07117 2.7485 29.8661 0.0 0.0 0.0 41.7687 11.0932 1.22899 -22.9254 0.249437 3.48583 41.5117 21.2393 -5.19742 -22.1004 0.0 0.0 -0.0 0.0 -0.0 17.3799 15.6339 4.30282 -42.1683 0.610446 -6.29913 13.8735 -28.6859 2.08306 22.8037 -0.0 -0.0 0.0 0.0 0.0 
3054.61881273 660.705 -1840.33866962 -20.3374724474 14.8138508194 4.29767798325 6.1777 0.339444 0.769746 6.17798 0.289776 0.789784 6.18161 0.206354 0.815564 6.18083 0.332564 0.772743 -10.6664 5.21236 3.20633 -10.6621 7.70494 4.45994 -0.0 0.0 -0.0 3.28378 7.42821 6.73648 -6.05507 5.04348 71.8408 0.289879 -8.17186 0.0207073 -12.0507 -0.576924 1.42584 -0.527939 25.9011 7.26706 -0.0 0.0 -0.0 10.42 27.4828 -19.6388 -16.3348 -14.9523 -68.5788 0.954549 25.307 -0.214307 -83.8641 8.30965 -5.21107 -4.21453 1.55142 30.3305 0.0 0.0 0.0 40.6533 15.8937 1.07648 -22.8935 0.250065 3.48096 42.022 17.7571 -5.16037 -21.4259 0.0 0.0 -0.0 0.0 -0.0 18.9767 15.6778 2.15721 -45.9316 0.886588 -6.80785 6.9608 -29.2136 1.07139 27.8539 -0.0 -0.0 0.0 0.0 0.0 
3051.7748238 657.478 -1864.61383972 -20.1482984724 14.9688541034 4.46033501633 6.43857 0.197752 0.82267 6.43893 0.145004 0.833585 6.44057 0.0616216 0.843856 6.43963 0.194115 0.823536 -11.5072 6.58722 2.78986 -11.5409 10.6551 4.49138 -0.0 0.0 -0.0 2.16954 7.40525 4.74418 -2.5882 5.46601 72.4617 0.313114 -8.81695 0.0241394 -10.6093 -0.492253 1.26201 -0.678559 24.3566 5.80042 -0.0 0.0 -0.0 9.84657 26.1374 -18.5062 -18.2875 -14.9319 -72.4156 0.805592 21.7552 -0.154808 -85.3646 8.49747 -5.17548 -4.39972 0.317171 31.0864 0.0 0.0 0.0 39.0726 18.7141 0.439688 -22.9225 0.249494 3.48539 41.7867 16.2389 -5.11063 -20.0499 0.0 0.0 -0.0 0.0 -0.0 22.4895 18.0432 1.48716 -50.2307 1.24232 -7.36576 -2.397 -29.0398 -0.376618 30.8651 -0.0 -0.0 0.0 0.0 0.0 
